<svg width="57" height="59" viewBox="0 0 57 59" fill="none" xmlns="http://www.w3.org/2000/svg">
<path d="M56.9468 29.9435C56.9468 45.669 44.1987 58.4171 28.4732 58.4171C12.7477 58.4171 -0.000362396 45.669 -0.000362396 29.9435V29.0537C-0.000362396 13.3282 12.7477 0.58012 28.4732 0.58012C44.1987 0.58012 56.9468 13.3282 56.9468 29.0537V29.4986V29.9435Z" fill="#D53831"/>
<path d="M16.4913 38.2597L35.7434 22.6465C35.943 22.4846 36.1452 22.5007 36.2994 22.6908L38.7444 25.7056C40.2862 27.6068 39.9809 29.9705 38.013 31.5665L24.893 42.2066C22.8109 43.8951 20.3406 43.6474 18.7767 41.719L16.4198 38.8129C16.2656 38.6227 16.2916 38.4216 16.4913 38.2597ZM34.8942 27.8375L21.7457 38.5007C21.4605 38.732 21.4086 39.1343 21.6509 39.4331C21.8932 39.7319 22.2625 39.8375 22.6048 39.5599L35.7533 28.8967C36.0385 28.6654 36.0904 28.2631 35.8261 27.9372C35.6059 27.6656 35.2365 27.5599 34.8942 27.8375Z" fill="#FFFFF9"/>
<path d="M19.1597 34.4308L38.4118 18.8176C38.6115 18.6557 38.6375 18.4545 38.4833 18.2644L36.0384 15.2496C34.4965 13.3484 32.1207 13.159 30.1527 14.755L17.0328 25.3951C14.9507 27.0836 14.683 29.5519 16.2469 31.4803L18.6037 34.3864C18.7579 34.5766 18.9601 34.5927 19.1597 34.4308ZM33.1574 18.5766L20.0089 29.2398C19.7237 29.4711 19.3193 29.4388 19.077 29.1401C18.8347 28.8413 18.8076 28.4581 19.1499 28.1805L32.2983 17.5173C32.5836 17.286 32.9879 17.3182 33.2523 17.6442C33.4725 17.9158 33.4996 18.299 33.1574 18.5766Z" fill="#FFFFF9"/>
</svg>
