<svg width="57" height="59" viewBox="0 0 57 59" fill="none" xmlns="http://www.w3.org/2000/svg">
<path d="M56.9473 29.949C56.9473 45.6746 44.1992 58.4226 28.4737 58.4226C12.7482 58.4226 0.000125885 45.6746 0.000125885 29.949V29.0592C0.000125885 13.3337 12.7482 0.585674 28.4737 0.585674C44.1992 0.585674 56.9473 13.3337 56.9473 29.0592V29.5041V29.949Z" fill="#D53831"/>
<path d="M16.4918 38.2653L35.7439 22.6521C35.9435 22.4902 36.1457 22.5063 36.2999 22.6965L38.7449 25.7113C40.2867 27.6125 39.9814 29.9761 38.0134 31.5721L24.8935 42.2122C22.8114 43.9008 20.341 43.653 18.7772 41.7246L16.4203 38.8185C16.2661 38.6284 16.2921 38.4272 16.4918 38.2653ZM34.8947 27.8431L21.7462 38.5063C21.461 38.7377 21.4091 39.14 21.6513 39.4387C21.8936 39.7375 22.263 39.8432 22.6053 39.5656L35.7537 28.9024C36.039 28.6711 36.0909 28.2688 35.8266 27.9428C35.6063 27.6712 35.237 27.5656 34.8947 27.8431Z" fill="#1F1F1F"/>
<path d="M19.1597 34.4363L38.4118 18.8232C38.6115 18.6612 38.6375 18.4601 38.4833 18.27L36.0384 15.2552C34.4965 13.354 32.1207 13.1646 30.1527 14.7606L17.0328 25.4007C14.9507 27.0892 14.683 29.5575 16.2469 31.4858L18.6037 34.392C18.7579 34.5821 18.9601 34.5982 19.1597 34.4363ZM33.1574 18.5821L20.0089 29.2453C19.7237 29.4766 19.3193 29.4444 19.077 29.1456C18.8347 28.8469 18.8076 28.4636 19.1499 28.1861L32.2983 17.5229C32.5836 17.2916 32.9879 17.3238 33.2523 17.6497C33.4725 17.9213 33.4996 18.3045 33.1574 18.5821Z" fill="#1F1F1F"/>
</svg>
