<svg width="30" height="31" viewBox="0 0 30 31" fill="none" xmlns="http://www.w3.org/2000/svg">
<path d="M29.5859 15.255C29.5859 23.4249 22.963 30.0479 14.7931 30.0479C6.62326 30.0479 0.000276566 23.4249 0.000276566 15.255V14.7928C0.000276566 6.6229 6.62326 -8.2016e-05 14.7931 -8.2016e-05C22.963 -8.2016e-05 29.5859 6.62289 29.5859 14.7927V15.0239V15.255Z" fill="#D53831"/>
<path d="M8.56741 19.5757L18.5694 11.4642C18.6732 11.3801 18.7782 11.3885 18.8583 11.4872L20.1285 13.0535C20.9296 14.0412 20.771 15.2692 19.7485 16.0984L12.9323 21.6262C11.8506 22.5035 10.5672 22.3748 9.75473 21.3729L8.53029 19.8631C8.45018 19.7643 8.46368 19.6598 8.56741 19.5757ZM18.1283 14.1611L11.2973 19.7009C11.1491 19.8211 11.1221 20.0301 11.248 20.1853C11.3738 20.3406 11.5657 20.3954 11.7435 20.2512L18.5746 14.7114C18.7227 14.5912 18.7497 14.3822 18.6124 14.2129C18.498 14.0718 18.3061 14.0169 18.1283 14.1611Z" fill="white"/>
<path d="M9.95412 17.5864L19.9561 9.47496C20.0599 9.39084 20.0734 9.28633 19.9933 9.18756L18.723 7.62129C17.922 6.63356 16.6877 6.53516 15.6653 7.36433L8.84911 12.8922C7.76741 13.7694 7.62833 15.0517 8.44081 16.0536L9.66525 17.5634C9.74536 17.6622 9.8504 17.6706 9.95412 17.5864ZM17.2263 9.34973L10.3953 14.8896C10.2471 15.0097 10.037 14.993 9.91115 14.8378C9.78527 14.6826 9.77118 14.4835 9.949 14.3393L16.78 8.79942C16.9282 8.67925 17.1383 8.696 17.2756 8.86532C17.39 9.00643 17.4041 9.20553 17.2263 9.34973Z" fill="white"/>
</svg>
