<svg width="66" height="44" viewBox="0 0 66 44" fill="none" xmlns="http://www.w3.org/2000/svg">
<path d="M36.9135 37.7981C36.8299 37.9863 36.7672 38.1954 36.6208 38.3417C36.2863 38.7181 35.8681 39.0108 35.5754 39.4081C34.9272 40.3071 35.1363 41.248 36.0354 41.8753C36.9344 42.4816 37.959 42.7535 39.0044 42.8789C40.6562 43.1089 42.2871 42.9416 43.7925 42.168C45.0679 41.4989 46.0088 40.5162 46.2597 39.0317C46.2597 38.969 46.3224 38.9272 46.4479 38.8854C46.4479 39.0735 46.4479 39.2617 46.4061 39.4499C45.9461 41.478 44.5452 42.5862 42.6634 43.1716C40.6144 43.7989 38.5653 43.7153 36.579 42.9207C36.1608 42.7535 35.7426 42.5444 35.429 42.2516C35.0945 41.938 34.8018 41.8962 34.3627 41.9798C32.0418 42.4189 29.7209 42.168 27.4001 41.938C23.9711 41.6035 20.6466 40.6835 17.343 39.7635C16.3185 39.4708 15.2312 39.3663 14.1858 39.199C13.9349 39.1572 13.7049 39.1153 13.5376 39.4499C13.2449 40.0981 12.6595 40.3281 11.9695 40.3281C10.0459 40.3281 8.12227 40.3281 6.21958 40.3281C5.65505 40.3281 5.06961 40.349 4.50507 40.3281C3.08328 40.2653 2.30966 39.4917 2.30966 38.0699C2.30966 37.4845 2.3933 36.8781 2.60238 36.3554C3.29237 34.62 3.06237 32.9891 2.1633 31.3791C1.38968 29.9573 0.929688 28.4101 0.929688 26.7374C0.929688 25.5247 1.24332 24.4165 1.87058 23.392C2.07967 23.0575 2.28875 22.702 2.51875 22.3884C3.48055 21.113 3.83599 19.7121 3.48055 18.1439C3.29237 17.3285 3.41782 16.5131 3.8569 15.8022C4.27508 15.1122 4.88143 14.7567 5.69687 14.7985C7.74592 14.924 9.79497 15.0076 11.844 15.1122C12.1995 15.1122 12.5758 15.1122 12.9313 15.2167C13.3285 15.3422 13.8094 15.5094 14.0394 15.8231C14.374 16.304 14.7503 16.2622 15.1894 16.1994C17.573 15.9276 19.7684 15.0704 21.9847 14.234C25.4556 12.9168 28.9473 11.6622 32.5854 10.9095C34.6763 10.4705 36.6208 9.6132 38.5026 8.63049C39.2971 8.23322 40.1753 7.96141 41.0325 7.79414C42.2243 7.54324 43.0189 8.10777 43.1861 9.29957C43.3116 10.0941 43.3116 10.9304 43.1234 11.7041C42.4752 14.3595 40.928 16.3249 38.419 17.4749C37.2899 17.9976 36.1608 18.5203 35.0527 19.0639C34.6554 19.2521 34.3209 19.5448 33.9445 19.7748C33.9445 19.8166 33.9863 19.8585 34.0072 19.9003C34.9063 19.8585 35.8054 19.8166 36.7254 19.7539C38.5444 19.6494 40.3426 19.503 42.1616 19.4612C48.2251 19.273 54.2886 19.1266 60.3522 18.9803C60.854 18.9803 61.3558 19.0012 61.8367 19.1057C63.3212 19.4194 63.9694 20.6739 63.4676 22.0957C63.133 23.0366 62.443 23.6429 61.5858 24.082C60.0803 24.8556 58.4704 25.3156 56.8395 25.6711C56.7768 25.6711 56.7141 25.7129 56.6513 25.8174C57.3413 25.8174 58.0313 25.8174 58.7213 25.8174C60.2476 25.8174 61.753 25.8174 63.2794 25.8592C63.5303 25.8592 63.7812 25.9429 64.0321 26.0474C65.5793 26.6329 66.0184 28.201 64.9103 29.4137C64.3875 29.9573 63.7185 30.4173 63.0285 30.731C61.2721 31.5673 59.3695 31.8809 57.4459 31.9855C53.2014 32.2364 48.9569 32.3828 44.7125 32.6337C42.6007 32.7591 40.5098 32.9473 38.419 33.1564C37.5826 33.24 36.7881 33.4909 36.1817 34.1182C35.0736 35.2472 35.4081 36.669 36.9344 37.0663C37.8544 37.2963 38.7953 37.3799 39.7571 37.4427C42.4543 37.6308 45.1097 37.5472 47.6606 36.4809C47.9951 36.3345 48.3297 36.1881 48.6433 36C50.1069 35.1636 50.3578 34.3273 49.6051 32.8846C49.6469 32.8427 49.6678 32.8218 49.7096 32.78C49.8978 32.9682 50.1278 33.1146 50.2324 33.3446C50.5669 34.0345 50.5042 34.7663 50.0233 35.3518C49.6469 35.8118 49.1869 36.2299 48.6851 36.5227C47.0124 37.4845 45.1516 37.9863 43.2489 38.0281C41.2834 38.0699 39.318 37.9445 37.3526 37.8817C37.2063 37.8817 37.0599 37.7981 36.9135 37.7563C35.9726 37.5472 35.2408 37.0663 34.969 36.1045C34.6763 35.1427 35.0527 34.3273 35.7008 33.6582C35.9935 33.3446 36.3699 33.0727 36.7463 32.9264C37.3526 32.6964 38.0008 32.4873 38.628 32.4246C41.1162 32.2155 43.5834 32.0482 46.0715 31.9019C49.9815 31.6719 53.9123 31.4837 57.8222 31.2537C59.5158 31.1491 61.1885 30.8355 62.7358 30.1037C63.363 29.811 63.9903 29.3928 64.4503 28.9119C65.203 28.1383 64.9312 27.1556 63.9485 26.7374C63.5512 26.5701 63.1121 26.4865 62.6939 26.4865C60.7494 26.4656 58.784 26.4865 56.8395 26.4865C54.1423 26.5074 51.4451 26.5701 48.7478 26.612C47.4097 26.612 46.0506 26.612 44.7125 26.612C44.6079 26.612 44.5243 26.6329 44.4197 26.6538V27.4483C43.9598 27.281 43.9598 26.4656 44.4197 25.4411C44.4616 25.6292 44.5034 25.7756 44.5243 25.922C45.5279 25.922 46.5106 25.922 47.4933 25.922C50.4833 25.9638 53.4314 25.7338 56.3586 25.1693C58.0522 24.8347 59.7249 24.3747 61.2721 23.6011C61.9203 23.2666 62.5058 22.8275 62.8403 22.1584C63.4048 21.0084 62.8821 19.9212 61.6067 19.7121C61.1885 19.6285 60.7494 19.6075 60.3103 19.6285C58.8049 19.6285 57.2995 19.6494 55.7941 19.6912C52.6578 19.7539 49.5006 19.7957 46.3643 19.9003C42.308 20.0048 38.2517 20.1721 34.1954 20.2766C33.6309 20.2766 33.38 20.5484 33.2127 20.9875C32.8991 21.803 32.6063 22.6393 32.2509 23.4338C31.31 25.4829 29.8673 27.1556 28.111 28.5356C28.0064 28.6192 27.8392 28.6192 27.7137 28.661C27.6928 28.6192 27.651 28.5565 27.6301 28.5146C27.7555 28.3892 27.881 28.2637 28.0064 28.1383C30.0137 26.2983 31.5191 24.1447 32.2509 21.5102C32.6691 20.0675 33.4636 18.9594 34.8227 18.3112C35.8263 17.8303 36.8508 17.3494 37.8753 16.9103C40.2589 15.8649 41.7643 14.0667 42.4125 11.5786C42.5798 10.9095 42.5798 10.1359 42.4961 9.44593C42.4125 8.67231 42.0152 8.37958 41.2834 8.52594C40.4053 8.69321 39.4853 8.94412 38.6908 9.36229C36.7044 10.3868 34.6554 11.2232 32.46 11.6832C29.5328 12.2895 26.6892 13.2304 23.8874 14.2549C22.0684 14.924 20.2702 15.6349 18.4303 16.1785C17.1966 16.5549 15.9212 16.7012 14.6249 16.9521C15.273 24.1656 16.0467 31.4628 13.8931 38.6135C15.2103 38.8017 16.4857 38.9063 17.7403 39.199C20.3957 39.8053 22.9674 40.7044 25.7065 41.0389C27.9646 41.3317 30.2228 41.708 32.5227 41.5826C33.2127 41.5408 33.9236 41.4362 34.6136 41.3526C34.4463 39.4499 35.2199 38.279 36.8926 37.819L36.9135 37.7981Z" fill="#080A1E"/>
<path d="M28.0483 5.26395C28.0483 5.26395 28.2155 5.43122 28.2783 5.51486C28.9892 6.37211 29.721 7.20846 30.4319 8.06571C30.4946 8.14935 30.5155 8.29571 30.5364 8.40025C30.4319 8.40025 30.3064 8.40025 30.2228 8.33753C29.261 7.62663 28.4664 6.76937 27.9019 5.72394C27.8392 5.59849 27.9019 5.41031 27.9019 5.26395C27.9437 5.26395 28.0064 5.26395 28.0483 5.24304V5.26395Z" fill="#080A1E"/>
<path d="M40.3631 0.413269C40.1122 2.02324 39.8822 3.50776 39.6522 4.99227C39.1713 4.40683 39.6104 1.12416 40.3631 0.413269Z" fill="#080A1E"/>
<path d="M33.7559 2.02277C34.2368 2.12731 35.2613 5.66088 35.0104 6.2045C34.5922 4.80362 34.174 3.42365 33.7559 2.02277Z" fill="#080A1E"/>
<path d="M47.0117 3.54949C46.949 3.67494 46.9281 3.77949 46.8654 3.86312C46.4054 4.44856 45.9663 5.03401 45.5063 5.59854C45.4436 5.66127 45.3181 5.68218 45.2345 5.7449C45.2345 5.66127 45.1718 5.55672 45.2136 5.51491C45.7363 4.84583 46.2799 4.17675 46.8236 3.52858C46.8236 3.50767 46.9072 3.52858 47.0326 3.52858L47.0117 3.54949Z" fill="#080A1E"/>
<path d="M28.2988 37.3794C30.9751 34.3476 32.7733 30.8768 33.7769 26.9878C33.0242 31.0023 31.226 34.494 28.5288 37.5049C28.4452 37.463 28.3616 37.4212 28.2988 37.3585V37.3794Z" fill="#080A1E"/>
<path d="M36.4954 26.6951C36.14 28.7024 35.5963 30.6678 34.6973 32.5496C35.3036 30.6051 35.8891 28.6396 36.4954 26.6951Z" fill="#080A1E"/>
</svg>
