<svg width="66" height="44" viewBox="0 0 66 44" fill="none" xmlns="http://www.w3.org/2000/svg">
<path d="M36.9135 37.7982C36.8299 37.9863 36.7672 38.1954 36.6208 38.3418C36.2863 38.7181 35.8681 39.0109 35.5754 39.4081C34.9272 40.3072 35.1363 41.2481 36.0354 41.8754C36.9344 42.4817 37.959 42.7535 39.0044 42.879C40.6562 43.109 42.2871 42.9417 43.7925 42.1681C45.0679 41.499 46.0088 40.5163 46.2597 39.0318C46.2597 38.969 46.3224 38.9272 46.4479 38.8854C46.4479 39.0736 46.4479 39.2618 46.4061 39.4499C45.9461 41.4781 44.5452 42.5862 42.6634 43.1717C40.6144 43.799 38.5653 43.7153 36.579 42.9208C36.1608 42.7535 35.7426 42.5444 35.429 42.2517C35.0945 41.9381 34.8018 41.8963 34.3627 41.9799C32.0418 42.419 29.7209 42.1681 27.4001 41.9381C23.9711 41.6035 20.6466 40.6836 17.343 39.7636C16.3185 39.4709 15.2312 39.3663 14.1858 39.199C13.9349 39.1572 13.7049 39.1154 13.5376 39.4499C13.2449 40.0981 12.6595 40.3281 11.9695 40.3281C10.0459 40.3281 8.12227 40.3281 6.21958 40.3281C5.65505 40.3281 5.06961 40.349 4.50507 40.3281C3.08328 40.2654 2.30966 39.4918 2.30966 38.07C2.30966 37.4845 2.3933 36.8782 2.60238 36.3555C3.29237 34.62 3.06237 32.9892 2.1633 31.3792C1.38968 29.9574 0.929688 28.4102 0.929688 26.7375C0.929688 25.5248 1.24332 24.4166 1.87058 23.3921C2.07967 23.0575 2.28875 22.7021 2.51875 22.3885C3.48055 21.113 3.83599 19.7122 3.48055 18.144C3.29237 17.3286 3.41782 16.5131 3.8569 15.8022C4.27508 15.1122 4.88143 14.7568 5.69687 14.7986C7.74592 14.9241 9.79497 15.0077 11.844 15.1122C12.1995 15.1122 12.5758 15.1122 12.9313 15.2168C13.3285 15.3422 13.8094 15.5095 14.0394 15.8231C14.374 16.304 14.7503 16.2622 15.1894 16.1995C17.573 15.9277 19.7684 15.0704 21.9847 14.2341C25.4556 12.9168 28.9473 11.6623 32.5854 10.9096C34.6763 10.4705 36.6208 9.61326 38.5026 8.63055C39.2971 8.23328 40.1753 7.96147 41.0325 7.7942C42.2243 7.5433 43.0189 8.10783 43.1861 9.29963C43.3116 10.0942 43.3116 10.9305 43.1234 11.7041C42.4752 14.3595 40.928 16.3249 38.419 17.4749C37.2899 17.9976 36.1608 18.5204 35.0527 19.064C34.6554 19.2522 34.3209 19.5449 33.9445 19.7749C33.9445 19.8167 33.9863 19.8585 34.0072 19.9003C34.9063 19.8585 35.8054 19.8167 36.7254 19.754C38.5444 19.6494 40.3426 19.5031 42.1616 19.4612C48.2251 19.2731 54.2886 19.1267 60.3522 18.9803C60.854 18.9803 61.3558 19.0013 61.8367 19.1058C63.3212 19.4194 63.9694 20.6739 63.4676 22.0957C63.133 23.0366 62.443 23.643 61.5858 24.0821C60.0803 24.8557 58.4704 25.3157 56.8395 25.6711C56.7768 25.6711 56.7141 25.7129 56.6513 25.8175C57.3413 25.8175 58.0313 25.8175 58.7213 25.8175C60.2476 25.8175 61.753 25.8175 63.2794 25.8593C63.5303 25.8593 63.7812 25.9429 64.0321 26.0475C65.5793 26.6329 66.0184 28.2011 64.9103 29.4138C64.3875 29.9574 63.7185 30.4174 63.0285 30.731C61.2721 31.5674 59.3695 31.881 57.4459 31.9855C53.2014 32.2365 48.9569 32.3828 44.7125 32.6337C42.6007 32.7592 40.5098 32.9473 38.419 33.1564C37.5826 33.2401 36.7881 33.491 36.1817 34.1182C35.0736 35.2473 35.4081 36.6691 36.9344 37.0664C37.8544 37.2964 38.7953 37.38 39.7571 37.4427C42.4543 37.6309 45.1097 37.5473 47.6606 36.4809C47.9951 36.3346 48.3297 36.1882 48.6433 36C50.1069 35.1637 50.3578 34.3273 49.6051 32.8846C49.6469 32.8428 49.6678 32.8219 49.7096 32.7801C49.8978 32.9683 50.1278 33.1146 50.2324 33.3446C50.5669 34.0346 50.5042 34.7664 50.0233 35.3518C49.6469 35.8118 49.1869 36.23 48.6851 36.5227C47.0124 37.4845 45.1516 37.9863 43.2489 38.0282C41.2834 38.07 39.318 37.9445 37.3526 37.8818C37.2063 37.8818 37.0599 37.7982 36.9135 37.7563C35.9726 37.5473 35.2408 37.0664 34.969 36.1046C34.6763 35.1428 35.0527 34.3273 35.7008 33.6582C35.9935 33.3446 36.3699 33.0728 36.7463 32.9264C37.3526 32.6964 38.0008 32.4874 38.628 32.4246C41.1162 32.2155 43.5834 32.0483 46.0715 31.9019C49.9815 31.6719 53.9123 31.4837 57.8222 31.2537C59.5158 31.1492 61.1885 30.8356 62.7358 30.1038C63.363 29.811 63.9903 29.3929 64.4503 28.912C65.203 28.1383 64.9312 27.1556 63.9485 26.7375C63.5512 26.5702 63.1121 26.4866 62.6939 26.4866C60.7494 26.4657 58.784 26.4866 56.8395 26.4866C54.1423 26.5075 51.4451 26.5702 48.7478 26.612C47.4097 26.612 46.0506 26.612 44.7125 26.612C44.6079 26.612 44.5243 26.6329 44.4197 26.6538V27.4484C43.9598 27.2811 43.9598 26.4657 44.4197 25.4411C44.4616 25.6293 44.5034 25.7757 44.5243 25.922C45.5279 25.922 46.5106 25.922 47.4933 25.922C50.4833 25.9638 53.4314 25.7339 56.3586 25.1693C58.0522 24.8348 59.7249 24.3748 61.2721 23.6012C61.9203 23.2666 62.5058 22.8275 62.8403 22.1585C63.4048 21.0085 62.8821 19.9212 61.6067 19.7122C61.1885 19.6285 60.7494 19.6076 60.3103 19.6285C58.8049 19.6285 57.2995 19.6494 55.7941 19.6912C52.6578 19.754 49.5006 19.7958 46.3643 19.9003C42.308 20.0049 38.2517 20.1721 34.1954 20.2767C33.6309 20.2767 33.38 20.5485 33.2127 20.9876C32.8991 21.803 32.6063 22.6394 32.2509 23.4339C31.31 25.4829 29.8673 27.1556 28.111 28.5356C28.0064 28.6192 27.8392 28.6192 27.7137 28.6611C27.6928 28.6192 27.651 28.5565 27.6301 28.5147C27.7555 28.3893 27.881 28.2638 28.0064 28.1383C30.0137 26.2984 31.5191 24.1448 32.2509 21.5103C32.6691 20.0676 33.4636 18.9594 34.8227 18.3113C35.8263 17.8304 36.8508 17.3495 37.8753 16.9104C40.2589 15.865 41.7643 14.0668 42.4125 11.5787C42.5798 10.9096 42.5798 10.136 42.4961 9.44599C42.4125 8.67237 42.0152 8.37964 41.2834 8.52601C40.4053 8.69327 39.4853 8.94418 38.6908 9.36235C36.7044 10.3869 34.6554 11.2232 32.46 11.6832C29.5328 12.2896 26.6892 13.2305 23.8874 14.255C22.0684 14.9241 20.2702 15.635 18.4303 16.1786C17.1966 16.5549 15.9212 16.7013 14.6249 16.9522C15.273 24.1657 16.0467 31.4628 13.8931 38.6136C15.2103 38.8018 16.4857 38.9063 17.7403 39.199C20.3957 39.8054 22.9674 40.7045 25.7065 41.039C27.9646 41.3317 30.2228 41.7081 32.5227 41.5826C33.2127 41.5408 33.9236 41.4363 34.6136 41.3526C34.4463 39.4499 35.2199 38.2791 36.8926 37.8191L36.9135 37.7982Z" fill="#080A1E"/>
<path d="M28.0483 5.26407C28.0483 5.26407 28.2155 5.43134 28.2783 5.51498C28.9892 6.37223 29.721 7.20858 30.4319 8.06583C30.4946 8.14947 30.5155 8.29583 30.5364 8.40038C30.4319 8.40038 30.3064 8.40037 30.2228 8.33765C29.261 7.62675 28.4664 6.7695 27.9019 5.72406C27.8392 5.59861 27.9019 5.41043 27.9019 5.26407C27.9437 5.26407 28.0064 5.26407 28.0483 5.24316V5.26407Z" fill="#080A1E"/>
<path d="M40.3631 0.41333C40.1122 2.0233 39.8822 3.50782 39.6522 4.99233C39.1713 4.40689 39.6104 1.12423 40.3631 0.41333Z" fill="#080A1E"/>
<path d="M33.7559 2.02271C34.2368 2.12725 35.2613 5.66082 35.0104 6.20444C34.5922 4.80356 34.174 3.42359 33.7559 2.02271Z" fill="#080A1E"/>
<path d="M47.0117 3.54949C46.949 3.67494 46.9281 3.77949 46.8654 3.86312C46.4054 4.44856 45.9663 5.03401 45.5063 5.59854C45.4436 5.66127 45.3181 5.68218 45.2345 5.7449C45.2345 5.66127 45.1718 5.55672 45.2136 5.51491C45.7363 4.84583 46.2799 4.17675 46.8236 3.52858C46.8236 3.50767 46.9072 3.52858 47.0326 3.52858L47.0117 3.54949Z" fill="#080A1E"/>
<path d="M28.2988 37.3794C30.9751 34.3476 32.7733 30.8768 33.7769 26.9878C33.0242 31.0023 31.226 34.494 28.5288 37.5049C28.4452 37.463 28.3616 37.4212 28.2988 37.3585V37.3794Z" fill="#080A1E"/>
<path d="M36.4954 26.6953C36.14 28.7025 35.5963 30.668 34.6973 32.5497C35.3036 30.6052 35.8891 28.6398 36.4954 26.6953Z" fill="#080A1E"/>
</svg>
