<svg width="26" height="27" viewBox="0 0 26 27" fill="none" xmlns="http://www.w3.org/2000/svg">
<g filter="url(#filter0_i_114_396)">
<path d="M23.1696 21.8899L18.7968 17.9543C17.9222 18.8288 16.6103 20.578 13.112 20.578C9.61372 20.578 8.30185 18.8288 6.98999 17.517L10.051 14.0187H0.430664V24.5136L3.05439 21.8899C4.36626 23.2017 8.21439 26.7 13.112 26.7C18.0096 26.7 21.712 23.3475 23.1696 21.8899Z" fill="#B5B6B5"/>
</g>
<g filter="url(#filter1_i_114_396)">
<path d="M12.6747 11.3949L9.61372 7.89663C6.5527 9.64579 5.96965 12.7068 6.11541 14.0187H0.430664C0.430664 13.1441 0.514945 10.3097 1.30524 8.33392C2.17982 6.14748 4.07474 4.68985 5.24084 3.96104L2.61711 0.900024H12.6747L12.6747 11.3949Z" fill="#4D8DF4"/>
</g>
<g filter="url(#filter2_i_114_396)">
<path d="M16.1731 13.5813L19.2341 10.5204C17.485 7.45935 14.1324 7.02197 12.6748 7.02199V0.900024C13.9867 0.900031 17.485 1.33731 19.2341 2.64918C20.866 3.87308 22.1494 5.2728 22.7324 6.14738L25.7934 3.52365V13.5813H16.1731Z" fill="#1B3CAC"/>
</g>
<path d="M16.1731 13.5813L19.2341 10.5204C17.485 7.45935 14.1324 7.02197 12.6748 7.02199V0.900024C13.9867 0.900031 17.485 1.33731 19.2341 2.64918C20.866 3.87308 22.1494 5.2728 22.7324 6.14738L25.7934 3.52365V13.5813H16.1731Z" stroke="black" stroke-width="0.172"/>
<defs>
<filter id="filter0_i_114_396" x="0.430664" y="13.1587" width="23.5993" height="13.5414" filterUnits="userSpaceOnUse" color-interpolation-filters="sRGB">
<feFlood flood-opacity="0" result="BackgroundImageFix"/>
<feBlend mode="normal" in="SourceGraphic" in2="BackgroundImageFix" result="shape"/>
<feColorMatrix in="SourceAlpha" type="matrix" values="0 0 0 0 0 0 0 0 0 0 0 0 0 0 0 0 0 0 127 0" result="hardAlpha"/>
<feOffset dx="0.86" dy="-0.86"/>
<feGaussianBlur stdDeviation="0.43"/>
<feComposite in2="hardAlpha" operator="arithmetic" k2="-1" k3="1"/>
<feColorMatrix type="matrix" values="0 0 0 0 1 0 0 0 0 1 0 0 0 0 1 0 0 0 0.2 0"/>
<feBlend mode="normal" in2="shape" result="effect1_innerShadow_114_396"/>
</filter>
<filter id="filter1_i_114_396" x="0.430664" y="0.0400244" width="13.1041" height="13.9787" filterUnits="userSpaceOnUse" color-interpolation-filters="sRGB">
<feFlood flood-opacity="0" result="BackgroundImageFix"/>
<feBlend mode="normal" in="SourceGraphic" in2="BackgroundImageFix" result="shape"/>
<feColorMatrix in="SourceAlpha" type="matrix" values="0 0 0 0 0 0 0 0 0 0 0 0 0 0 0 0 0 0 127 0" result="hardAlpha"/>
<feOffset dx="0.86" dy="-0.86"/>
<feGaussianBlur stdDeviation="0.43"/>
<feComposite in2="hardAlpha" operator="arithmetic" k2="-1" k3="1"/>
<feColorMatrix type="matrix" values="0 0 0 0 0 0 0 0 0 0 0 0 0 0 0 0 0 0 0.1 0"/>
<feBlend mode="normal" in2="shape" result="effect1_innerShadow_114_396"/>
</filter>
<filter id="filter2_i_114_396" x="12.5889" y="-0.0460352" width="14.151" height="13.7133" filterUnits="userSpaceOnUse" color-interpolation-filters="sRGB">
<feFlood flood-opacity="0" result="BackgroundImageFix"/>
<feBlend mode="normal" in="SourceGraphic" in2="BackgroundImageFix" result="shape"/>
<feColorMatrix in="SourceAlpha" type="matrix" values="0 0 0 0 0 0 0 0 0 0 0 0 0 0 0 0 0 0 127 0" result="hardAlpha"/>
<feOffset dx="0.86" dy="-0.86"/>
<feGaussianBlur stdDeviation="0.43"/>
<feComposite in2="hardAlpha" operator="arithmetic" k2="-1" k3="1"/>
<feColorMatrix type="matrix" values="0 0 0 0 0 0 0 0 0 0 0 0 0 0 0 0 0 0 0.1 0"/>
<feBlend mode="normal" in2="shape" result="effect1_innerShadow_114_396"/>
</filter>
</defs>
</svg>
