<svg width="53" height="53" viewBox="0 0 53 53" fill="none" xmlns="http://www.w3.org/2000/svg">
<path d="M20.3841 19.875H15.9006C13.427 19.875 12.1893 19.875 11.2445 20.3564C10.4135 20.7798 9.73832 21.455 9.31488 22.2861C8.8335 23.2308 8.8335 24.4685 8.8335 26.9421V39.3088C8.8335 41.7823 8.8335 43.0185 9.31488 43.9632C9.73833 44.7943 10.4135 45.4706 11.2445 45.8941C12.1884 46.375 13.4247 46.375 15.8934 46.375H37.107C39.5757 46.375 40.8101 46.375 41.754 45.8941C42.585 45.4706 43.2625 44.7943 43.6859 43.9632C44.1668 43.0194 44.1668 41.785 44.1668 39.3162V26.9348C44.1668 24.4661 44.1668 23.2299 43.6859 22.2861C43.2625 21.455 42.585 20.7798 41.754 20.3564C40.8092 19.875 39.5742 19.875 37.1006 19.875H32.6149M20.3841 19.875H32.6149M20.3841 19.875C20.1027 19.875 19.8752 19.6468 19.8752 19.3654V13.25C19.8752 9.59111 22.8413 6.625 26.5002 6.625C30.159 6.625 33.1252 9.59111 33.1252 13.25V19.3654C33.1252 19.6468 32.8963 19.875 32.6149 19.875" stroke="white" stroke-width="4.41667" stroke-linecap="round" stroke-linejoin="round"/>
</svg>
