<svg width="26" height="23" viewBox="0 0 26 23" fill="none" xmlns="http://www.w3.org/2000/svg">
<path d="M0.662767 17.3843L21.285 0.659995C21.4989 0.486558 21.7155 0.503824 21.8806 0.707476L24.4996 3.93682C26.1512 5.97334 25.8242 8.50523 23.7161 10.2148L9.66243 21.6121C7.43217 23.4208 4.78599 23.1555 3.11081 21.0899L0.586238 17.9769C0.421079 17.7732 0.448906 17.5578 0.662767 17.3843ZM20.3754 6.22043L6.29119 17.6425C5.98568 17.8903 5.93002 18.3212 6.18955 18.6413C6.44909 18.9613 6.84474 19.0745 7.21136 18.7772L21.2956 7.35506C21.6011 7.1073 21.6568 6.67634 21.3736 6.32722C21.1377 6.03629 20.742 5.92311 20.3754 6.22043Z" fill="#080A1E"/>
</svg>
