<svg width="26" height="23" viewBox="0 0 26 23" fill="none" xmlns="http://www.w3.org/2000/svg">
<path d="M0.662767 17.2112L21.285 0.486899C21.4989 0.313463 21.7155 0.330728 21.8806 0.534381L24.4996 3.76372C26.1512 5.80025 25.8242 8.33213 23.7161 10.0417L9.66243 21.439C7.43217 23.2478 4.78599 22.9824 3.11081 20.9168L0.586238 17.8038C0.421079 17.6001 0.448907 17.3847 0.662767 17.2112ZM20.3754 6.04733L6.29119 17.4694C5.98568 17.7172 5.93002 18.1482 6.18955 18.4682C6.44909 18.7882 6.84474 18.9014 7.21136 18.6041L21.2956 7.18197C21.6011 6.9342 21.6568 6.50324 21.3736 6.15412C21.1377 5.86319 20.742 5.75001 20.3754 6.04733Z" fill="#151515"/>
</svg>
