<svg width="26" height="23" viewBox="0 0 26 23" fill="none" xmlns="http://www.w3.org/2000/svg">
<path d="M4.52214 22.283L25.1444 5.55868C25.3583 5.38524 25.3861 5.16976 25.2209 4.96611L22.602 1.73676C20.9504 -0.299758 18.4056 -0.502629 16.2975 1.20697L2.24382 12.6043C0.0135581 14.413 -0.273209 17.0569 1.40197 19.1226L3.92654 22.2355C4.0917 22.4392 4.30828 22.4564 4.52214 22.283ZM19.516 5.30047L5.43174 16.7226C5.12623 16.9703 4.69306 16.9358 4.43353 16.6158C4.17399 16.2958 4.14496 15.8853 4.51157 15.5879L18.5958 4.16584C18.9013 3.91807 19.3345 3.9526 19.6176 4.30172C19.8536 4.59265 19.8826 5.00315 19.516 5.30047Z" fill="#151515"/>
</svg>
