<svg width="26" height="23" viewBox="0 0 26 23" fill="none" xmlns="http://www.w3.org/2000/svg">
<path d="M4.52214 22.2832L25.1444 5.55892C25.3583 5.38548 25.3861 5.17 25.2209 4.96635L22.602 1.73701C20.9504 -0.299514 18.4056 -0.502385 16.2975 1.20721L2.24382 12.6045C0.0135581 14.4132 -0.273209 17.0572 1.40197 19.1228L3.92654 22.2358C4.0917 22.4394 4.30828 22.4567 4.52214 22.2832ZM19.516 5.30072L5.43174 16.7228C5.12623 16.9706 4.69306 16.936 4.43353 16.616C4.17399 16.296 4.14496 15.8855 4.51157 15.5882L18.5958 4.16608C18.9013 3.91832 19.3345 3.95285 19.6176 4.30197C19.8536 4.5929 19.8826 5.0034 19.516 5.30072Z" fill="#151515"/>
</svg>
